<svg xmlns="http://www.w3.org/2000/svg" viewBox="0 0 95.93 57.66"><defs><style>.cls-1{fill:#ec9706;}</style></defs><g id="Layer_2" data-name="Layer 2"><g id="Layer_1-2" data-name="Layer 1"><path class="cls-1" d="M95.93,57.66s-1.47-.57-4-1.64c-1.25-.59-2.85-1.05-4.62-1.71s-3.83-1.24-6.05-1.91l-1.7-.51-1.79-.41L74,50.57c-1.28-.29-2.63-.49-4-.74s-2.74-.54-4.17-.68l-4.33-.57c-1.46-.16-2.95-.23-4.45-.36L54.8,48c-.75,0-1.51,0-2.27-.07L48,47.85,43.38,48c-.77,0-1.54,0-2.3.06l-2.24.18c-1.49.14-3,.21-4.42.36l-4.33.57c-1.43.14-2.81.45-4.17.68s-2.71.46-4,.75l-3.74.9-1.79.42-1.7.51c-2.22.67-4.28,1.22-6.06,1.91S5.26,55.45,4,56c-2.53,1.06-4,1.63-4,1.63s1.35-.86,3.75-2.32A49.3,49.3,0,0,1,8.2,53l1.35-.67.7-.36.74-.31,3.16-1.29,1.69-.69,1.78-.6,3.77-1.21c1.3-.39,2.65-.69,4-1s2.79-.71,4.24-.94l4.42-.76c1.5-.22,3-.35,4.58-.51L41,44.33c.77-.06,1.53-.06,2.3-.09L48,44.08l4.69.16c.78,0,1.56,0,2.33.1l2.31.23c1.54.17,3.06.29,4.56.51l4.42.77c1.45.22,2.86.58,4.24.93s2.73.66,4,1L78.3,49l1.79.61,1.69.68,3.15,1.3.75.31.7.35,1.35.68c1.74.88,3.27,1.6,4.45,2.37C94.57,56.79,95.93,57.66,95.93,57.66Z"/><path class="cls-1" d="M38.88,36.69H43V32.53H38.88Zm6.92,0H50V32.53H45.8ZM94.58,46,76.78,28.47v-18L68.21,1.92V20l-17-16.74L47.88,0,44.55,3.28,1.18,46l46.7-32.36ZM48,3.58v7L18.55,31.92ZM38.88,30.14H43V26H38.88Zm6.92,0H50V26H45.8Zm6.92,0h4.16V26H52.72Zm0,6.55h4.16V32.53H52.72Z"/></g></g></svg>